<svg width="48" height="48" viewBox="0 0 48 48" fill="none" xmlns="http://www.w3.org/2000/svg">
<path d="M33.1821 12.884C31.9741 12.884 30.9946 11.9047 30.9946 10.6965V8.17435C30.9946 7.66145 30.753 7.17385 30.3338 6.87835C30.3035 6.85698 30.278 6.84104 30.2594 6.8326C30.0809 6.75123 29.8853 6.70801 29.6853 6.70801H13.0708C11.8627 6.70801 10.8833 7.68732 10.8833 8.89548V39.1049C10.8833 40.313 11.8626 41.2924 13.0708 41.2924H32.6818C33.8898 41.2924 34.8692 40.3131 34.8692 39.1049V12.884H33.1821Z" fill="white"/>
<path d="M35.7044 12.8838H33.7671V39.1047C33.7671 40.3128 32.7877 41.2922 31.5796 41.2922H34.9834C35.9419 41.2922 36.7558 40.6755 37.0514 39.8174L37.5614 39.4688V32.8125L37.1707 32.3259V14.1931C37.1707 13.9931 37.1274 13.7977 37.0462 13.6191C37.0376 13.6004 37.0217 13.5749 37.0004 13.5446C36.7049 13.1254 36.2173 12.8838 35.7044 12.8838Z" fill="#E2E2E2"/>
<path d="M36.7653 13.2145L30.6643 7.11345C30.546 6.99523 30.408 6.90205 30.2588 6.83398V11.4325C30.2588 12.6406 31.2382 13.62 32.4463 13.62H37.0448C36.9767 13.4707 36.8835 13.3327 36.7653 13.2145Z" fill="#FDA31B"/>
<path d="M18.0768 16.8245L17.4725 16.426H13.2772L12.362 16.8245C12.362 16.5152 12.9716 15.7063 13.8893 15.7063H19.1467C19.1467 15.7063 19.6034 15.2953 19.6034 15.2984C19.6034 15.298 19.6033 15.2976 19.6033 15.2971C19.6033 15.2965 19.6034 15.2959 19.6034 15.2953C19.6034 14.4529 18.9204 13.7699 18.078 13.7699H12.8823L12.2598 13.7695C11.4996 13.7691 10.8836 13.1528 10.8836 12.3925V11.4355C9.66194 11.4959 8.48482 11.998 7.72638 12.9611L6.91132 13.9961C6.40235 14.6425 5.62516 15.0197 4.80241 15.0197H1.354V22.9558H5.61766C5.9695 22.9558 6.31816 23.0205 6.64507 23.1464C8.54594 23.7755 9.66616 24.6216 12.3022 24.632H16.7233C17.2888 24.629 17.7828 24.339 18.0613 23.9064C17.8426 23.3317 17.2881 22.9225 16.6367 22.9225L16.1443 22.5003L13.1286 22.4982L12.3619 22.9196C12.3619 22.4307 13.0943 21.7667 13.8859 21.6863H18.4867L18.8123 21.3971C18.8123 20.5547 18.1293 19.8717 17.2869 19.8717L16.6521 19.5788H13.1834L12.3619 19.8717C12.3619 19.5668 13.2795 18.809 13.8856 18.809H18.9777L19.5294 18.3462C19.5295 17.5284 18.8853 16.8627 18.0768 16.8245Z" fill="#FCD0A3"/>
<path d="M17.3452 22.9198C17.4337 22.9164 17.5206 22.907 17.6047 22.8892C17.5181 22.9062 17.4312 22.9165 17.3452 22.9198Z" fill="#FCD0A3"/>
<path d="M16.6368 24.4491H12.362C9.82882 24.4388 8.56863 23.5373 6.8921 22.9635C6.57607 22.8376 6.23894 22.7729 5.89863 22.7729H1.354V24.3022H5.89872C6.23894 24.3022 6.57607 24.3669 6.89219 24.4928C8.695 25.1098 9.8201 25.9679 12.3621 25.9784H16.6368C17.4793 25.9737 18.1623 25.2907 18.1623 24.4483C18.1623 24.1694 18.0861 23.9087 17.9554 23.6837C17.6913 24.1385 17.2003 24.446 16.6368 24.4491Z" fill="#FFB983"/>
<path d="M2.29463 13.9209H1.31409C0.588375 13.9209 0 14.5093 0 15.235V24.1193C0 24.845 0.588375 25.4334 1.31409 25.4334H2.29463C3.02034 25.4334 3.60872 24.845 3.60872 24.1193V15.235C3.60872 14.5093 3.02034 13.9209 2.29463 13.9209Z" fill="#028103"/>
<path d="M41.0089 27.8898L40.2733 26.9558C39.8032 26.3589 39.1238 25.8839 38.2722 25.6276C37.9344 25.5259 37.5587 25.4569 37.1704 25.4336V26.2743C37.1704 27.5679 36.1217 28.6166 34.828 28.6166H32.4587C31.6808 28.6166 31.0298 29.1528 30.8506 29.8752C31.127 30.4081 31.6819 30.8097 32.3223 30.8097H35.9438H35.9572C36.5901 30.8137 37.1023 31.3113 37.1641 31.9297L37.1704 37.7854V37.7855V38.6331C37.5634 38.5647 38.3196 38.4105 39.3054 38.0926L40.5089 37.6131C41.0391 37.4019 41.3871 36.8887 41.3871 36.3179V28.7072L41.0089 27.8898Z" fill="#FFEAE1"/>
<path d="M37.1707 31.6586C37.1707 30.9833 36.633 30.4172 35.9576 30.4129C35.9531 30.4129 35.9487 30.4129 35.9442 30.4129H32.4591C31.818 30.4129 31.262 30.0484 30.9859 29.5146C30.8681 29.7426 30.8003 30.0006 30.8003 30.275C30.8003 31.1929 31.5444 31.9338 32.4591 31.9338H35.9442C36.3919 31.9338 36.8195 32.0751 37.1707 32.3257V31.6586Z" fill="#FFDBCC"/>
<path d="M45.7455 29.0142H43.1974C42.3748 29.0142 41.5976 28.6369 41.0886 27.9906L41.0091 27.8896V36.0601C41.0091 36.6309 40.6612 37.144 40.1309 37.3553L38.9274 37.8347C38.3018 38.048 37.7301 38.1862 37.1706 38.2771V39.1046C37.1706 39.3542 37.1282 39.5938 37.0513 39.8173C37.6489 39.7272 38.2574 39.5841 38.9274 39.3556L41.1079 38.487C41.424 38.3611 41.7611 38.2964 42.1013 38.2964H45.7455V29.0142H45.7455Z" fill="#FFDBCC"/>
<path d="M45.7052 27.9155H46.6857C47.4115 27.9155 47.9998 28.5039 47.9998 29.2296V38.1139C47.9998 38.8397 47.4115 39.428 46.6857 39.428H45.7052C44.9795 39.428 44.3911 38.8397 44.3911 38.1139V29.2296C44.3911 28.5039 44.9795 27.9155 45.7052 27.9155Z" fill="#028103"/>
<path d="M12.3623 16.8246H18.0771C18.0771 16.8241 18.0771 16.8248 18.0771 16.8243C18.9201 16.8247 19.6036 16.1415 19.6036 15.2986C19.6036 15.2981 19.6036 15.2977 19.6036 15.2974H13.8896C13.0461 15.2974 12.3623 15.9812 12.3623 16.8246Z" fill="#FFB983"/>
<path d="M12.3623 19.8718H17.2873H18.0044C18.8462 19.8718 19.5286 19.1898 19.5297 18.3481H13.8859C13.0444 18.3482 12.3623 19.0304 12.3623 19.8718Z" fill="#FFB983"/>
<path d="M12.3623 22.92H17.3454C18.1607 22.8892 18.8127 22.2203 18.8127 21.3975C18.8127 21.397 18.8126 21.3966 18.8126 21.396H13.8863C13.0446 21.396 12.3623 22.0783 12.3623 22.92Z" fill="#FFB983"/>
<path d="M21.5214 33.35H15.0827C14.6827 33.35 14.3584 33.0257 14.3584 32.6257C14.3584 32.2256 14.6827 31.9014 15.0827 31.9014H21.5214C21.9214 31.9014 22.2457 32.2256 22.2457 32.6257C22.2457 33.0257 21.9214 33.35 21.5214 33.35Z" fill="#C995E4"/>
<path d="M21.5214 36.3764H15.0827C14.6827 36.3764 14.3584 36.0521 14.3584 35.652C14.3584 35.252 14.6827 34.9277 15.0827 34.9277H21.5214C21.9214 34.9277 22.2457 35.252 22.2457 35.652C22.2457 36.0521 21.9214 36.3764 21.5214 36.3764Z" fill="#C995E4"/>
</svg>
