<svg width="48" height="48" viewBox="0 0 48 48" fill="none" xmlns="http://www.w3.org/2000/svg">
<path d="M34.5419 4.1284V45.2747C34.5419 45.6068 34.1388 45.7747 33.9038 45.5396L32.6463 44.2784C32.2135 43.8456 31.5119 43.8456 31.0791 44.2784L29.9485 45.4128C29.5157 45.8456 28.8105 45.8456 28.3776 45.409L27.2693 44.2859C26.8365 43.8493 26.1312 43.8493 25.6984 44.2821L24.5715 45.4128C24.1387 45.8456 23.4334 45.8456 23.0006 45.409L21.8887 44.2859C21.4558 43.8493 20.7506 43.8493 20.3177 44.2821L19.1908 45.4128C18.758 45.8456 18.0528 45.8456 17.6199 45.409L16.5079 44.2859C16.0751 43.8493 15.3699 43.8493 14.937 44.2821L13.8101 45.4128C13.3773 45.8456 12.6721 45.8456 12.2392 45.409L11.131 44.2859C10.6982 43.8493 9.99288 43.8493 9.56007 44.2821L8.43317 45.4128C8.00036 45.8456 7.29507 45.8456 6.86226 45.409L5.75031 44.2859C5.31741 43.8493 4.61221 43.8493 4.17931 44.2821L2.90319 45.562C2.66816 45.7971 2.26514 45.6292 2.26514 45.2971V4.1284C2.26514 3.09853 3.10097 2.2627 4.13084 2.2627H32.6761C33.706 2.2627 34.5419 3.09853 34.5419 4.1284Z" fill="#FBFBFB"/>
<path d="M6.41112 2.2627C5.37866 2.2627 4.54547 3.09594 4.54547 4.12835V44.0408C4.18983 44.1932 4.13465 44.3706 2.90617 45.5623C2.67074 45.7978 2.26318 45.6257 2.26318 45.2997V4.12835C2.26318 3.09594 3.09638 2.2627 4.12884 2.2627H6.41112Z" fill="#C6C6F7"/>
<path d="M21.9249 8.87313C21.9249 9.35252 21.5388 9.74431 21.0571 9.74431H6.37606C5.89521 9.74431 5.50488 9.35402 5.50488 8.87313C5.50488 8.4015 5.8835 8.00195 6.37606 8.00195H21.0571C21.538 8.00195 21.9249 8.39224 21.9249 8.87313Z" fill="#C6C6F7"/>
<path d="M11.1657 9.74596H6.37477C5.8948 9.74596 5.50537 9.35654 5.50537 8.87651C5.50537 8.39203 5.90092 7.99805 6.37477 7.99805H11.1657C10.6926 7.99805 10.2963 8.3912 10.2963 8.87651C10.2963 9.35654 10.6857 9.74596 11.1657 9.74596Z" fill="#B5B5EA"/>
<path d="M31.9377 8.87313C31.9377 9.35252 31.5517 9.74431 31.07 9.74431H26.2247C25.7438 9.74431 25.3535 9.35402 25.3535 8.87313C25.3535 8.4015 25.7321 8.00195 26.2247 8.00195H31.07C31.5509 8.00195 31.9377 8.39224 31.9377 8.87313Z" fill="#C6C6F7"/>
<path d="M31.9376 12.6847C31.9376 13.164 31.5516 13.5558 31.0699 13.5558H23.0548C22.5739 13.5558 22.1836 13.1655 22.1836 12.6847C22.1836 12.213 22.5622 11.8135 23.0548 11.8135H31.0699C31.5508 11.8135 31.9376 12.2038 31.9376 12.6847Z" fill="#C6C6F7"/>
<path d="M31.9377 16.4962C31.9377 16.7366 31.8401 16.9527 31.6833 17.113C31.5264 17.2698 31.3104 17.3674 31.0699 17.3674H27.5831C27.1022 17.3674 26.7119 16.9771 26.7119 16.4962C26.7119 16.2557 26.8095 16.0397 26.9663 15.8794C27.1231 15.7226 27.3427 15.625 27.5831 15.625H31.0699C31.5508 15.625 31.9377 16.0153 31.9377 16.4962Z" fill="#C6C6F7"/>
<path d="M31.9377 20.3077C31.9377 20.5481 31.8401 20.7642 31.6833 20.9245C31.5264 21.0813 31.3104 21.1789 31.0699 21.1789H27.5831C27.1022 21.1789 26.7119 20.7886 26.7119 20.3077C26.7119 20.0673 26.8095 19.8512 26.9663 19.6909C27.1231 19.5341 27.3427 19.4365 27.5831 19.4365H31.0699C31.5508 19.4365 31.9377 19.8268 31.9377 20.3077Z" fill="#C6C6F7"/>
<path d="M29.94 21.1754H27.5852C27.1052 21.1754 26.7158 20.786 26.7158 20.306C26.7158 20.0705 26.8064 19.8531 26.9694 19.6901C27.1234 19.5361 27.3407 19.4365 27.5852 19.4365H29.94C29.7045 19.4365 29.4781 19.5361 29.3241 19.6901C29.1701 19.8531 29.0705 20.0705 29.0705 20.306C29.0705 20.786 29.4599 21.1754 29.94 21.1754Z" fill="#B5B5EA"/>
<path d="M29.94 17.3648H27.5852C27.1052 17.3648 26.7158 16.9754 26.7158 16.4954C26.7158 16.2599 26.8064 16.0426 26.9694 15.8795C27.1234 15.7256 27.3407 15.626 27.5852 15.626H29.94C29.7045 15.626 29.4781 15.7256 29.3241 15.8795C29.1701 16.0426 29.0705 16.2599 29.0705 16.4954C29.0705 16.9754 29.4599 17.3648 29.94 17.3648Z" fill="#B5B5EA"/>
<path d="M25.4116 13.5553H23.0569C22.5769 13.5553 22.1875 13.1658 22.1875 12.6859C22.1875 12.1964 22.5801 11.8164 23.0569 11.8164H25.4116C24.9091 11.8164 24.5422 12.2299 24.5422 12.6859C24.5422 13.1658 24.9316 13.5553 25.4116 13.5553Z" fill="#B5B5EA"/>
<path d="M28.5816 9.74569H26.2268C25.7468 9.74569 25.3574 9.35626 25.3574 8.87629C25.3574 8.38679 25.75 8.00684 26.2268 8.00684H28.5816C28.0791 8.00684 27.7121 8.42029 27.7121 8.87629C27.7121 9.35626 28.1015 9.74569 28.5816 9.74569Z" fill="#B5B5EA"/>
<path d="M16.6978 12.6847C16.6978 13.164 16.3117 13.5558 15.83 13.5558H6.37606C5.89521 13.5558 5.50488 13.1655 5.50488 12.6847C5.50488 12.213 5.8835 11.8135 6.37606 11.8135H15.83C16.311 11.8135 16.6978 12.2038 16.6978 12.6847Z" fill="#C6C6F7"/>
<path d="M21.9249 16.4962C21.9249 16.9756 21.5388 17.3674 21.0571 17.3674H6.37606C5.89521 17.3674 5.50488 16.9771 5.50488 16.4962C5.50488 16.0245 5.8835 15.625 6.37606 15.625H21.0571C21.538 15.625 21.9249 16.0153 21.9249 16.4962Z" fill="#C6C6F7"/>
<path d="M13.7149 20.3077C13.7149 20.7871 13.3288 21.1789 12.8471 21.1789H6.37606C5.89521 21.1789 5.50488 20.7886 5.50488 20.3077C5.50488 19.8361 5.8835 19.4365 6.37606 19.4365H12.8471C13.328 19.4365 13.7149 19.8268 13.7149 20.3077Z" fill="#C6C6F7"/>
<path d="M11.3613 27.4453H12.8059V34.7214H11.3613V27.4453Z" fill="#028103"/>
<path d="M13.7632 27.4453H14.9043V34.7214H13.7632V27.4453Z" fill="#028103"/>
<path d="M22.3921 27.4453H23.5332V34.7214H22.3921V27.4453Z" fill="#028103"/>
<path d="M17.7896 27.4453H19.7385V34.7214H17.7896V27.4453Z" fill="#028103"/>
<path d="M16.1577 27.4453H16.894V34.7214H16.1577V27.4453Z" fill="#028103"/>
<path d="M20.6816 27.4453H21.4179V34.7214H20.6816V27.4453Z" fill="#028103"/>
<path d="M24.709 27.4453H25.4453V34.7214H24.709V27.4453Z" fill="#028103"/>
<path d="M11.1657 13.5594H6.37477C5.8948 13.5594 5.50537 13.17 5.50537 12.69C5.50537 12.2055 5.90092 11.8115 6.37477 11.8115H11.1657C10.6926 11.8115 10.2963 12.2047 10.2963 12.69C10.2963 13.17 10.6857 13.5594 11.1657 13.5594Z" fill="#B5B5EA"/>
<path d="M11.1657 17.3739H6.37477C5.8948 17.3739 5.50537 16.9845 5.50537 16.5044C5.50537 16.02 5.90092 15.626 6.37477 15.626H11.1657C10.6926 15.626 10.2963 16.0191 10.2963 16.5044C10.2963 16.9845 10.6857 17.3739 11.1657 17.3739Z" fill="#B5B5EA"/>
<path d="M11.1657 21.1874H6.37477C5.8948 21.1874 5.50537 20.7979 5.50537 20.3179C5.50537 19.8334 5.90092 19.4395 6.37477 19.4395H11.1657C10.6926 19.4395 10.2963 19.8326 10.2963 20.3179C10.2963 20.7979 10.6857 21.1874 11.1657 21.1874Z" fill="#B5B5EA"/>
<path d="M45.7366 22.8311V43.7379C45.7366 44.8419 44.8416 45.7369 43.7375 45.7369H28.5225C27.4184 45.7369 26.5234 44.8419 26.5234 43.7379V22.8311C26.5234 21.727 27.4184 20.832 28.5225 20.832H43.7375C44.8416 20.832 45.7366 21.727 45.7366 22.8311Z" fill="#5B5E8B"/>
<path d="M31.3834 45.7358H28.5225C27.4186 45.7358 26.5234 44.8429 26.5234 43.7368V22.8311C26.5234 21.7272 27.4186 20.832 28.5225 20.832H31.3834C30.2772 20.832 29.3843 21.7272 29.3843 22.8311V43.7368C29.3843 44.8429 30.2772 45.7358 31.3834 45.7358Z" fill="#312E4B"/>
<path d="M43.59 23.7985V28.3785C43.59 28.6674 43.3558 28.9016 43.0669 28.9016H29.1935C28.9046 28.9016 28.6704 28.6674 28.6704 28.3785V23.7985C28.6704 23.5096 28.9046 23.2754 29.1935 23.2754H43.0669C43.3558 23.2754 43.59 23.5096 43.59 23.7985Z" fill="#E7E7E7"/>
<path d="M30.304 28.9016H29.1934C28.9046 28.9016 28.6714 28.6684 28.6714 28.3796V23.7974C28.6714 23.5086 28.9046 23.2754 29.1934 23.2754H30.304C30.0152 23.2754 29.782 23.5086 29.782 23.7974V28.3796C29.782 28.6684 30.0152 28.9016 30.304 28.9016Z" fill="#A8A8A8"/>
<path d="M30.5116 34.0672C31.5285 34.0672 32.3528 33.2428 32.3528 32.226C32.3528 31.2091 31.5285 30.3848 30.5116 30.3848C29.4947 30.3848 28.6704 31.2091 28.6704 32.226C28.6704 33.2428 29.4947 34.0672 30.5116 34.0672Z" fill="#DEDDFF"/>
<path d="M36.1303 34.0672C37.1471 34.0672 37.9715 33.2428 37.9715 32.226C37.9715 31.2091 37.1471 30.3848 36.1303 30.3848C35.1134 30.3848 34.2891 31.2091 34.2891 32.226C34.2891 33.2428 35.1134 34.0672 36.1303 34.0672Z" fill="#DEDDFF"/>
<path d="M41.7479 34.0672C42.7648 34.0672 43.5892 33.2428 43.5892 32.226C43.5892 31.2091 42.7648 30.3848 41.7479 30.3848C40.7311 30.3848 39.9067 31.2091 39.9067 32.226C39.9067 33.2428 40.7311 34.0672 41.7479 34.0672Z" fill="#DEDDFF"/>
<path d="M41.7479 39.2322C42.7648 39.2322 43.5892 38.4079 43.5892 37.391C43.5892 36.3741 42.7648 35.5498 41.7479 35.5498C40.7311 35.5498 39.9067 36.3741 39.9067 37.391C39.9067 38.4079 40.7311 39.2322 41.7479 39.2322Z" fill="#DEDDFF"/>
<path d="M36.1303 39.2322C37.1471 39.2322 37.9715 38.4079 37.9715 37.391C37.9715 36.3741 37.1471 35.5498 36.1303 35.5498C35.1134 35.5498 34.2891 36.3741 34.2891 37.391C34.2891 38.4079 35.1134 39.2322 36.1303 39.2322Z" fill="#DEDDFF"/>
<path d="M30.5116 39.2322C31.5285 39.2322 32.3528 38.4079 32.3528 37.391C32.3528 36.3741 31.5285 35.5498 30.5116 35.5498C29.4947 35.5498 28.6704 36.3741 28.6704 37.391C28.6704 38.4079 29.4947 39.2322 30.5116 39.2322Z" fill="#DEDDFF"/>
<path d="M41.7479 44.3973C42.7648 44.3973 43.5892 43.5729 43.5892 42.556C43.5892 41.5392 42.7648 40.7148 41.7479 40.7148C40.7311 40.7148 39.9067 41.5392 39.9067 42.556C39.9067 43.5729 40.7311 44.3973 41.7479 44.3973Z" fill="#DEDDFF"/>
<path d="M43.4399 43.2792C43.1578 43.9367 42.5048 44.3965 41.7474 44.3965C39.7583 44.3965 39.1835 41.6428 41.0277 40.8604C40.3807 42.3652 41.8997 43.9261 43.4399 43.2792Z" fill="#C6C6F7"/>
<path d="M43.4396 38.1152C43.1576 38.7726 42.5045 39.2324 41.7471 39.2324C40.7298 39.2324 39.9058 38.4061 39.9058 37.391C39.9058 36.6292 40.3678 35.9762 41.0275 35.6963C40.3804 37.2011 41.8994 38.762 43.4396 38.1152Z" fill="#C6C6F7"/>
<path d="M37.8225 38.1152C37.0343 39.9523 34.2886 39.3821 34.2886 37.391C34.2886 36.6292 34.7506 35.9762 35.4103 35.6963C34.7646 37.1979 36.278 38.7638 37.8225 38.1152Z" fill="#C6C6F7"/>
<path d="M32.2053 38.1152C31.4171 39.9523 28.6714 39.3821 28.6714 37.391C28.6714 36.6292 29.1334 35.9762 29.7931 35.6963C29.1474 37.1979 30.6608 38.7638 32.2053 38.1152Z" fill="#C6C6F7"/>
<path d="M43.4396 32.9496C43.1576 33.6071 42.5045 34.0669 41.7471 34.0669C40.7298 34.0669 39.9058 33.2406 39.9058 32.2255C39.9058 31.4637 40.3678 30.8106 41.0275 30.5308C40.3804 32.0356 41.8994 33.5965 43.4396 32.9496Z" fill="#C6C6F7"/>
<path d="M37.8225 32.9496C37.5404 33.6071 36.8873 34.0669 36.1299 34.0669C35.1126 34.0669 34.2886 33.2406 34.2886 32.2255C34.2886 31.4637 34.7506 30.8106 35.4103 30.5308C34.7632 32.0356 36.2822 33.5965 37.8225 32.9496Z" fill="#C6C6F7"/>
<path d="M32.2053 32.9496C31.9232 33.6071 31.2702 34.0669 30.5127 34.0669C29.4954 34.0669 28.6714 33.2406 28.6714 32.2255C28.6714 31.4637 29.1334 30.8106 29.7931 30.5308C29.1474 32.0324 30.6608 33.5983 32.2053 32.9496Z" fill="#C6C6F7"/>
<path d="M37.9714 42.5552C37.9714 43.5481 37.1807 44.361 36.1945 44.3943V44.3966H30.5127C29.4932 44.3966 28.6714 43.5703 28.6714 42.5552C28.6714 41.5379 29.4932 40.7139 30.5127 40.7139H36.1945V40.7161C37.1807 40.7494 37.9714 41.5601 37.9714 42.5552Z" fill="#FDA31B"/>
<path d="M31.8277 44.3966H30.5127C29.4932 44.3966 28.6714 43.5703 28.6714 42.5552C28.6714 41.5379 29.4932 40.7139 30.5127 40.7139H31.8277C30.8082 40.7139 29.9863 41.5379 29.9863 42.5552C29.9863 43.5703 30.8082 44.3966 31.8277 44.3966Z" fill="#E29116"/>
</svg>
