<svg width="22" height="20" viewBox="0 0 22 20" fill="none" xmlns="http://www.w3.org/2000/svg">
<path d="M3.84144 8.3528H8.56262C8.76345 8.3528 8.92578 8.1901 8.92578 7.98963C8.92578 7.78916 8.76345 7.62646 8.56262 7.62646H3.84144C3.64061 7.62646 3.47827 7.78916 3.47827 7.98963C3.47827 8.1901 3.64061 8.3528 3.84144 8.3528Z" fill="#6D6D6D"/>
<path d="M13.2838 9.80566H3.84144C3.64061 9.80566 3.47827 9.96836 3.47827 10.1688C3.47827 10.3693 3.64061 10.532 3.84144 10.532H13.2838C13.4846 10.532 13.647 10.3693 13.647 10.1688C13.647 9.96836 13.4846 9.80566 13.2838 9.80566Z" fill="#6D6D6D"/>
<path d="M13.2838 11.9844H3.84144C3.64061 11.9844 3.47827 12.1471 3.47827 12.3475C3.47827 12.548 3.64061 12.7107 3.84144 12.7107H13.2838C13.4846 12.7107 13.647 12.548 13.647 12.3475C13.647 12.1471 13.4846 11.9844 13.2838 11.9844Z" fill="#6D6D6D"/>
<path d="M19.8469 0.0254218L7.44765 0C6.26009 0 5.29406 0.966026 5.29406 2.15358V4.01445L2.3633 4.02063C1.17574 4.02063 0.209717 4.98665 0.209717 6.17421V13.8519C0.209717 15.0395 1.17574 16.0052 2.3633 16.0052H4.56773V19.6368C4.56773 19.7868 4.65997 19.9216 4.80015 19.9757C4.84265 19.992 4.88695 20 4.93089 20C5.03113 20 5.12955 19.9582 5.19964 19.8812L8.72382 16.0044L14.7618 15.9797C15.9494 15.9797 16.9154 15.0137 16.9154 13.8265V13.7855L18.8257 15.8868C18.8958 15.9638 18.9942 16.0055 19.0944 16.0055C19.1384 16.0055 19.1827 15.9975 19.2252 15.9812C19.3654 15.9271 19.4576 15.7923 19.4576 15.6424V12.0107H19.8462C21.0337 12.0107 21.9998 11.0447 21.9998 9.85746V2.17901C21.9998 0.991811 21.0341 0.025785 19.8469 0.0254218ZM16.1891 13.8262C16.1891 14.6131 15.5488 15.253 14.7604 15.253L8.56112 15.2785C8.45943 15.2788 8.3621 15.322 8.29383 15.3972L5.29406 18.6973V15.6416C5.29406 15.4412 5.13173 15.2785 4.93089 15.2785H2.3633C1.57632 15.2785 0.936052 14.6382 0.936052 13.8516V6.17385C0.936052 5.38686 1.57632 4.7466 2.36403 4.7466L5.65723 4.7397C5.65759 4.7397 5.65759 4.7397 5.65796 4.7397L14.7618 4.72081C15.5488 4.72081 16.1891 5.36108 16.1891 6.14806V12.8452V13.8262ZM21.2734 9.85673C21.2734 10.6437 20.6332 11.2836 19.8462 11.2836H19.0944C18.8936 11.2836 18.7313 11.4463 18.7313 11.6468V14.7025L16.9154 12.7051V6.14843C16.9154 4.96087 15.9494 3.99484 14.7611 3.99484L6.0204 4.01264V2.15322C6.0204 1.36624 6.66066 0.725972 7.44692 0.725972L19.8458 0.751394C19.8462 0.751394 19.8462 0.751394 19.8465 0.751394C20.6335 0.751394 21.2738 1.39166 21.2738 2.17864L21.2734 9.85673Z" fill="#6D6D6D"/>
</svg>
