<svg width="14" height="18" viewBox="0 0 14 18" fill="none" xmlns="http://www.w3.org/2000/svg">
<path d="M6.99976 0C3.14003 0 -0.000244141 2.69167 -0.000244141 6.00001C-0.000244141 6.99318 0.289449 7.9779 0.840164 8.85132L6.61696 17.8066C6.69386 17.926 6.84041 18 6.99976 18C7.1591 18 7.30565 17.926 7.38255 17.8066L13.1615 8.84837C13.7101 7.9779 13.9998 6.99314 13.9998 5.99998C13.9998 2.69167 10.8595 0 6.99976 0ZM12.3937 8.48841L6.99976 16.8501L1.60793 8.49171C1.12813 7.73072 0.874781 6.86904 0.874781 6.00001C0.874781 3.10511 3.62241 0.750023 6.99976 0.750023C10.3771 0.750023 13.1247 3.10514 13.1247 6.00001C13.1247 6.869 12.8714 7.73072 12.3937 8.48841Z" fill="#6D6D6D"/>
<path d="M6.99974 3C5.06987 3 3.49976 4.34582 3.49976 5.99999C3.49976 7.6542 5.06987 9.00001 6.99974 9.00001C8.9296 9.00001 10.4997 7.6542 10.4997 6.00002C10.4997 4.34585 8.9296 3 6.99974 3ZM6.99974 8.25002C5.55221 8.25002 4.37474 7.24076 4.37474 6.00002C4.37474 4.75929 5.55221 3.75002 6.99974 3.75002C8.44726 3.75002 9.62473 4.75929 9.62473 6.00002C9.62473 7.24072 8.44726 8.25002 6.99974 8.25002Z" fill="#6D6D6D"/>
</svg>
