<svg width="15" height="14" viewBox="0 0 15 14" fill="none" xmlns="http://www.w3.org/2000/svg">
<path fill-rule="evenodd" clip-rule="evenodd" d="M7.50665 0C5.5036 0 3.87744 1.62201 3.87744 3.61979C3.87744 5.61773 5.5036 7.23974 7.50665 7.23974C9.50954 7.23974 11.1357 5.61773 11.1357 3.61979C11.1357 1.62201 9.50954 0 7.50665 0ZM7.50665 0.990964C8.96129 0.990964 10.1422 2.16886 10.1422 3.61979C10.1422 5.07072 8.96129 6.24878 7.50665 6.24878C6.05201 6.24878 4.87094 5.07072 4.87094 3.61979C4.87094 2.16886 6.05201 0.990964 7.50665 0.990964Z" fill="black"/>
<path fill-rule="evenodd" clip-rule="evenodd" d="M1.99043 14.0002C4.46273 14.0002 10.5528 14.0002 13.0249 13.9875C13.4573 13.9875 13.8701 13.7964 14.1509 13.4652C14.4316 13.1338 14.5517 12.6961 14.4794 12.2683C14.4791 12.267 14.4789 12.2656 14.4786 12.2642C13.89 8.95671 10.9904 6.44141 7.50649 6.44141C4.02337 6.44141 1.1241 8.9556 0.521802 12.26C0.521484 12.2621 0.521166 12.2642 0.520848 12.2662C0.447727 12.6976 0.569013 13.1392 0.852279 13.4734C1.13539 13.8075 1.5517 14.0003 1.99043 14.0002ZM1.99043 13.0092C1.99043 13.0092 1.99043 13.0092 1.99027 13.0092C1.84419 13.0092 1.70526 12.945 1.61083 12.8337C1.51737 12.7233 1.47683 12.5778 1.49972 12.4354C2.01936 9.59331 4.51185 7.43237 7.50649 7.43237C10.5005 7.43237 12.993 9.59283 13.5001 12.4349C13.5231 12.5746 13.4837 12.7173 13.3921 12.8254C13.3001 12.934 13.165 12.9965 13.0224 12.9965C13.0216 12.9965 13.0208 12.9965 13.0199 12.9965C10.5488 13.0092 4.46162 13.0092 1.99043 13.0092Z" fill="black"/>
</svg>
