<svg width="18" height="18" viewBox="0 0 18 18" fill="none" xmlns="http://www.w3.org/2000/svg">
<path d="M17.8905 17.3595L12.414 11.883C13.551 10.62 14.25 8.95502 14.25 7.125C14.25 3.19651 11.0535 0 7.12496 0C3.19647 0 0 3.19651 0 7.125C0 11.0535 3.19651 14.25 7.125 14.25C8.95498 14.25 10.62 13.551 11.883 12.4133L17.3595 17.8898C17.433 17.9633 17.529 18 17.625 18C17.721 18 17.817 17.9633 17.8905 17.8905C18.0367 17.7435 18.0367 17.5065 17.8905 17.3595ZM7.125 13.5C3.60977 13.5 0.750022 10.6403 0.750022 7.12503C0.750022 3.6098 3.60973 0.750022 7.125 0.750022C10.6403 0.750022 13.5 3.60977 13.5 7.125C13.5 10.6402 10.6402 13.5 7.125 13.5Z" fill="#6D6D6D"/>
</svg>
