<svg width="43" height="42" viewBox="0 0 43 42" fill="none" xmlns="http://www.w3.org/2000/svg">
<path fill-rule="evenodd" clip-rule="evenodd" d="M0.13623 21C0.13623 9.40202 9.63322 0 21.3484 0C33.0635 0 42.5605 9.40202 42.5605 21C42.5605 32.598 33.0635 42 21.3484 42C9.63322 42 0.13623 32.598 0.13623 21Z" fill="#FCA21A"/>
<path d="M10.9752 21.1392L15.9319 22.8226L27.6997 15.6283C27.8703 15.524 28.0451 15.7556 27.898 15.8911L18.9888 24.0915L18.6575 28.6825C18.6323 29.0317 19.053 29.2261 19.3027 28.9806L22.0458 26.2832L27.0604 30.0794C27.601 30.4886 28.3836 30.2002 28.5294 29.5381L32.0212 13.6838C32.2203 12.7794 31.3341 12.0162 30.4692 12.3474L10.95 19.8219C10.3376 20.0564 10.3543 20.9283 10.9752 21.1392Z" fill="white"/>
</svg>
