<svg width="193" height="66" viewBox="0 0 193 66" fill="none" xmlns="http://www.w3.org/2000/svg">
<path d="M33.7533 61.2183C49.578 61.2183 62.4065 48.4694 62.4065 32.7429C62.4065 17.0164 49.578 4.26758 33.7533 4.26758C17.9286 4.26758 5.1001 17.0164 5.1001 32.7429C5.1001 48.4694 17.9286 61.2183 33.7533 61.2183Z" fill="#6D6D6D"/>
<path fill-rule="evenodd" clip-rule="evenodd" d="M23.3172 33.1629C22.2456 31.389 21.6399 29.335 21.6399 27.141C21.6399 20.6524 27.0444 15.3774 33.7534 15.3774C40.4159 15.3774 45.8204 20.6524 45.8204 27.141C45.8204 29.4751 45.1681 31.6691 43.9568 33.4896C43.6306 34.0031 43.2579 34.4699 42.8386 34.9367C40.7886 37.3175 38.0864 39.5115 38.1795 42.499H29.6069C29.4205 39.8382 27.5103 37.8776 25.6467 35.9637C24.7149 35.1235 23.9228 34.1898 23.3172 33.1629Z" fill="#FEFEFE"/>
<path fill-rule="evenodd" clip-rule="evenodd" d="M29.8864 43.3857H37.5738C38.1329 43.3857 38.5522 43.8059 38.5522 44.366C38.5522 44.8795 38.1329 45.3463 37.5738 45.3463H29.8864C29.3273 45.3463 28.908 44.8795 28.908 44.366C28.908 43.8059 29.3273 43.3857 29.8864 43.3857Z" fill="#FEFEFE"/>
<path fill-rule="evenodd" clip-rule="evenodd" d="M29.8864 45.8604H37.5738C38.1329 45.8604 38.5522 46.3272 38.5522 46.8407C38.5522 47.4008 38.1329 47.8209 37.5738 47.8209H29.8864C29.3273 47.8209 28.908 47.4008 28.908 46.8407C28.908 46.3272 29.3273 45.8604 29.8864 45.8604Z" fill="#FEFEFE"/>
<path fill-rule="evenodd" clip-rule="evenodd" d="M33.7537 48.5684H31.5173C31.5173 49.4086 32.4957 50.1088 33.7537 50.1088C34.965 50.1088 35.9434 49.4086 35.9434 48.5684H33.7537Z" fill="#FEFEFE"/>
<path fill-rule="evenodd" clip-rule="evenodd" d="M33.1946 41.566H34.2662C34.406 41.566 34.4992 41.4727 34.4992 41.3326V33.7236C34.4992 33.5836 34.406 33.4902 34.2662 33.4902H33.1946C33.0549 33.4902 32.9617 33.5836 32.9617 33.7236V41.3326C32.9617 41.4727 33.0549 41.566 33.1946 41.566Z" fill="#6D6D6D"/>
<path fill-rule="evenodd" clip-rule="evenodd" d="M29.9333 33.5372L30.0731 34.5175C30.1197 34.6575 30.2129 34.7042 30.3527 34.7042L37.3413 33.117C37.4344 33.117 37.5276 32.977 37.5276 32.8369L37.3878 31.8566C37.3413 31.7166 37.2481 31.6699 37.1083 31.6699L30.1197 33.2571C30.0265 33.2571 29.9333 33.3971 29.9333 33.5372Z" fill="#6D6D6D"/>
<path fill-rule="evenodd" clip-rule="evenodd" d="M29.9333 31.0159L30.0731 32.0428C30.1197 32.1362 30.2129 32.2296 30.3527 32.1829L37.3413 30.6424C37.4344 30.5957 37.5276 30.5024 37.5276 30.3623L37.3878 29.382C37.3413 29.242 37.2481 29.1953 37.1083 29.1953L30.1197 30.7825C30.0265 30.7825 29.9333 30.9225 29.9333 31.0159Z" fill="#6D6D6D"/>
<path fill-rule="evenodd" clip-rule="evenodd" d="M29.9333 28.6353L30.0731 29.6156C30.1197 29.7556 30.2129 29.8023 30.3527 29.8023L37.3413 28.2152C37.4344 28.2152 37.5276 28.0751 37.5276 27.9351L37.3878 26.9548C37.3413 26.8147 37.2481 26.7681 37.1083 26.7681L30.1197 28.3552C30.0265 28.3552 29.9333 28.4953 29.9333 28.6353Z" fill="#6D6D6D"/>
<path fill-rule="evenodd" clip-rule="evenodd" d="M33.7068 61.592C18.0058 61.4987 5.37976 48.6148 5.47294 32.7433C5.56613 16.9184 18.3319 4.12787 34.033 4.22123C49.734 4.3146 62.36 17.2452 62.2668 33.07C62.1737 48.9415 49.4078 61.6854 33.7068 61.592ZM52.2033 64.9998L15.3501 64.7663C7.42975 64.7197 0.953659 58.1843 1.00025 50.2953L1.2332 15.3313C1.27979 7.39553 7.80247 0.953571 15.7229 1.00025L52.576 1.18698C60.4964 1.28034 66.9259 7.76898 66.8793 15.7047L66.6929 50.6687C66.6464 58.6045 60.1237 65.0464 52.2033 64.9998Z" fill="#FEFEFE" stroke="#6D6D6D" stroke-width="1.88983"/>
<path d="M79.9712 23.2669C80.903 19.299 82.6734 17.3384 85.2359 17.3384C87.1461 17.3384 88.637 18.3654 89.662 20.466C90.687 22.5666 91.1995 25.5542 91.1995 29.382C91.1995 33.3499 90.687 36.4309 89.7086 38.5315C88.6836 40.6788 87.2393 41.7525 85.3757 41.7525C83.745 41.7525 82.4405 41.0523 81.5553 39.6985C80.6701 38.3915 80.0644 36.6176 79.6917 34.4703L83.0462 32.6497C83.3723 35.0304 84.1178 36.2441 85.2825 36.2441C86.6336 36.2441 87.3791 34.7503 87.5655 31.7628H84.1178V27.3748H87.5655C87.3791 24.3405 86.5871 22.8 85.2359 22.8C84.2109 22.8 83.5121 23.7803 83.1394 25.7876L79.9712 23.2669Z" fill="white"/>
<path d="M102.474 41.3326H99.3061V29.0088H96.8834V36.1977C96.8834 38.1116 96.697 39.512 96.3243 40.4456C95.9516 41.3792 95.3459 41.8461 94.5539 41.8461C93.6686 41.8461 92.8766 41.6593 92.1777 41.3326V36.4778C92.5505 36.7578 92.83 36.8512 93.0164 36.8512C93.4823 36.8512 93.6686 36.1977 93.6686 34.8906V24.2007H102.474V41.3326Z" fill="white"/>
<path d="M113.656 34.4232H107.273C107.32 35.4502 107.459 36.2438 107.692 36.7573C107.972 37.5042 108.391 37.8776 108.857 37.8776C109.183 37.8776 109.509 37.7376 109.789 37.4108C109.929 37.1774 110.115 36.8506 110.348 36.3371L113.47 36.944C113.004 38.6245 112.398 39.8849 111.746 40.6318C111.047 41.3787 110.068 41.7521 108.811 41.7521C107.692 41.7521 106.854 41.4254 106.201 40.7718C105.596 40.1183 105.037 39.138 104.617 37.7376C104.245 36.3371 104.012 34.7033 104.012 32.8361C104.012 30.1286 104.431 27.9813 105.27 26.3007C106.108 24.6669 107.226 23.8267 108.717 23.8267C109.929 23.8267 110.861 24.2001 111.559 24.947C112.212 25.6939 112.771 26.7676 113.097 28.168C113.47 29.5684 113.656 31.4356 113.656 33.6763V34.4232ZM110.395 31.2956C110.348 29.9885 110.208 29.1016 109.929 28.5414C109.649 27.9813 109.276 27.7012 108.857 27.7012C108.345 27.7012 107.925 28.1213 107.646 28.9616C107.459 29.475 107.32 30.2686 107.273 31.2956H110.395Z" fill="white"/>
<path d="M124.372 41.333H120.785L119.573 36.6182C119.387 35.8713 119.201 35.4045 119.014 35.2178C118.828 35.031 118.595 34.891 118.315 34.891V41.333H115.101V24.2011H118.315V30.4096C118.595 30.363 118.781 30.1762 118.874 29.8961C119.014 29.5694 119.201 28.9158 119.434 27.8889C119.666 26.9086 119.899 26.1617 120.086 25.6482C120.272 25.1814 120.505 24.8546 120.785 24.6212C121.064 24.3878 121.437 24.2011 121.903 24.1544C122.322 24.1077 122.974 24.061 123.86 24.061V28.7291H123.72C123.254 28.7291 122.928 28.7291 122.741 28.8225C122.508 28.8692 122.322 29.0559 122.182 29.2426C122.043 29.476 121.903 29.9428 121.716 30.643C121.53 31.3433 121.39 31.8101 121.251 32.0901C121.157 32.3702 120.971 32.557 120.738 32.6503C121.204 32.7437 121.53 32.9304 121.763 33.2572C121.996 33.5373 122.369 34.5176 122.881 36.1981L124.372 41.333Z" fill="white"/>
<path d="M132.432 29.0088H130.103V41.3326H126.935V29.0088H124.605V24.2007H132.432V29.0088Z" fill="white"/>
<path d="M133.597 47.8206V24.2001H136.579V26.7676C136.998 25.6939 137.371 24.947 137.697 24.5736C138.163 24.0601 138.676 23.8267 139.235 23.8267C140.353 23.8267 141.238 24.7136 141.844 26.4408C142.449 28.2147 142.729 30.362 142.729 32.9761C142.729 35.8236 142.403 37.971 141.751 39.5114C141.098 41.0052 140.26 41.7521 139.235 41.7521C138.769 41.7521 138.303 41.5654 137.884 41.2386C137.511 40.8652 137.138 40.3517 136.812 39.6982V47.8206H133.597ZM136.765 32.8361C136.765 34.1898 136.905 35.2168 137.185 35.8703C137.464 36.5239 137.837 36.8506 138.256 36.8506C138.629 36.8506 138.908 36.5239 139.188 35.917C139.421 35.2635 139.561 34.1898 139.561 32.696C139.561 31.2956 139.421 30.2686 139.141 29.6151C138.908 28.9616 138.582 28.6348 138.21 28.6348C137.79 28.6348 137.464 28.9616 137.185 29.6151C136.905 30.2686 136.765 31.3423 136.765 32.8361Z" fill="white"/>
<path d="M143.893 32.8361C143.893 30.2219 144.312 28.0746 145.151 26.3474C146.036 24.6669 147.201 23.8267 148.645 23.8267C150.323 23.8267 151.581 24.807 152.419 26.8142C153.071 28.4014 153.444 30.4087 153.444 32.7427C153.444 35.3568 153.025 37.5042 152.14 39.2313C151.301 40.9119 150.136 41.7521 148.645 41.7521C147.294 41.7521 146.223 41.0519 145.384 39.6515C144.406 37.9243 143.893 35.6369 143.893 32.8361ZM147.061 32.8361C147.061 34.3765 147.248 35.4969 147.527 36.1971C147.807 36.944 148.179 37.3174 148.645 37.3174C149.111 37.3174 149.484 36.944 149.763 36.2438C150.09 35.4969 150.229 34.3765 150.229 32.7427C150.229 31.2489 150.09 30.1753 149.763 29.4284C149.484 28.7282 149.111 28.3547 148.692 28.3547C148.226 28.3547 147.853 28.7282 147.527 29.4284C147.248 30.1753 147.061 31.2956 147.061 32.8361Z" fill="white"/>
<path d="M161.179 34.6566L164.207 35.3568C164.067 36.6639 163.788 37.7842 163.415 38.7179C162.996 39.6982 162.53 40.3984 161.924 40.9585C161.318 41.472 160.573 41.7521 159.688 41.7521C158.803 41.7521 158.057 41.5654 157.451 41.2386C156.892 40.9119 156.38 40.3517 155.961 39.6048C155.541 38.8112 155.168 37.9243 154.936 36.8973C154.703 35.8703 154.609 34.5633 154.609 32.8361C154.609 31.1089 154.749 29.6151 155.029 28.4481C155.262 27.6078 155.541 26.8142 155.914 26.1607C156.287 25.4605 156.659 24.947 157.032 24.6202C157.684 24.1067 158.476 23.8267 159.455 23.8267C160.806 23.8267 161.831 24.3401 162.53 25.3204C163.275 26.3007 163.788 27.7945 164.067 29.7085L161.039 30.502C160.946 29.8018 160.806 29.2416 160.526 28.8682C160.293 28.4947 159.967 28.308 159.548 28.308C158.989 28.308 158.57 28.6815 158.243 29.475C157.917 30.2686 157.778 31.4356 157.778 33.0228C157.778 34.4232 157.917 35.4969 158.243 36.2438C158.57 36.944 158.989 37.3174 159.501 37.3174C159.921 37.3174 160.247 37.084 160.526 36.6639C160.853 36.2438 161.039 35.5436 161.179 34.6566Z" fill="white"/>
<path d="M174.923 34.4232H168.494C168.587 35.4502 168.727 36.2438 168.913 36.7573C169.239 37.5042 169.658 37.8776 170.124 37.8776C170.45 37.8776 170.776 37.7376 171.056 37.4108C171.196 37.1774 171.382 36.8506 171.615 36.3371L174.737 36.944C174.271 38.6245 173.665 39.8849 173.013 40.6318C172.314 41.3787 171.336 41.7521 170.078 41.7521C168.959 41.7521 168.121 41.4254 167.469 40.7718C166.863 40.1183 166.304 39.138 165.884 37.7376C165.465 36.3371 165.279 34.7033 165.279 32.8361C165.279 30.1286 165.698 27.9813 166.537 26.3007C167.375 24.6669 168.494 23.8267 169.984 23.8267C171.149 23.8267 172.128 24.2001 172.78 24.947C173.479 25.6939 174.038 26.7676 174.364 28.168C174.737 29.5684 174.923 31.4356 174.923 33.6763V34.4232ZM171.662 31.2956C171.615 29.9885 171.429 29.1016 171.196 28.5414C170.916 27.9813 170.544 27.7012 170.124 27.7012C169.612 27.7012 169.192 28.1213 168.913 28.9616C168.68 29.475 168.587 30.2686 168.54 31.2956H171.662Z" fill="white"/>
<path d="M183.402 29.0088H181.073V41.3326H177.905V29.0088H175.575V24.2007H183.402V29.0088Z" fill="white"/>
<path d="M187.829 30.3159H189.273C191.742 30.3159 193 32.1831 193 35.8709C193 39.512 191.789 41.3326 189.366 41.3326H184.66V24.2007H187.829V30.3159ZM187.829 37.318H188.854C189.133 37.318 189.366 37.178 189.506 36.9446C189.692 36.7112 189.739 36.3377 189.739 35.8709C189.739 34.8439 189.459 34.3304 188.854 34.3304H187.829V37.318Z" fill="white"/>
<path d="M106.9 43.3857H108.391L108.95 46.0466L109.509 43.3857H110.954V47.7737H110.022V44.4127L109.323 47.7737H108.531L107.832 44.4127V47.7737H106.9V43.3857Z" fill="white"/>
<path d="M112.631 45.7209H113.097C113.889 45.7209 114.262 46.0477 114.262 46.7479C114.262 47.4014 113.889 47.7749 113.144 47.7749H111.653V44.6006H112.631V45.7209ZM112.631 47.028H112.957C113.051 47.028 113.097 46.9813 113.19 46.9346C113.237 46.8879 113.237 46.8413 113.237 46.7479C113.237 46.5612 113.144 46.4678 112.957 46.4678H112.631V47.028ZM114.541 44.6006H115.566V47.7749H114.541V44.6006Z" fill="white"/>
<path d="M118.409 45.4875H117.663V47.7749H116.638V45.4875H115.939V44.6006H118.409V45.4875Z" fill="white"/>
<path d="M121.67 47.7749H120.738V46.1877L119.713 47.7749H118.781V44.6006H119.713V46.1877L120.738 44.6006H121.67V47.7749Z" fill="white"/>
<path d="M126.795 48.6618H126.096V47.7749H122.275V44.6006H123.3V46.8879H123.859V44.6006H124.838V46.8879H125.397V44.6006H126.422V46.8879H126.795V48.6618Z" fill="white"/>
<path d="M130.056 47.7749H129.124V46.1877L128.146 47.7749H127.167V44.6006H128.146V46.1877L129.124 44.6006H130.056V47.7749Z" fill="white"/>
<path d="M141.284 43.2935V47.7748H140.259V44.8339C140.12 45.0206 139.98 45.114 139.793 45.2074C139.654 45.3007 139.467 45.3941 139.234 45.4875V44.5072C139.561 44.3671 139.84 44.1804 140.026 43.9937C140.213 43.8069 140.353 43.5735 140.446 43.2935H141.284Z" fill="white"/>
<path d="M142.449 46.7945L143.428 46.6545C143.474 46.7945 143.474 46.9346 143.567 46.9812C143.614 47.0746 143.707 47.0746 143.8 47.0746C143.94 47.0746 144.08 46.9812 144.173 46.7945C144.22 46.6545 144.266 46.3277 144.313 45.8609C144.173 46.0476 144.08 46.141 143.94 46.1877C143.8 46.281 143.66 46.3277 143.521 46.3277C143.195 46.3277 142.915 46.1877 142.682 45.9076C142.449 45.6275 142.356 45.2541 142.356 44.8339C142.356 44.5538 142.403 44.2738 142.542 44.0404C142.636 43.8069 142.775 43.6202 143.008 43.4802C143.195 43.3868 143.428 43.2935 143.754 43.2935C144.08 43.2935 144.406 43.3868 144.592 43.5269C144.825 43.7136 145.012 43.947 145.151 44.2738C145.245 44.6005 145.338 45.0206 145.338 45.5341C145.338 46.3277 145.198 46.9346 144.918 47.2613C144.639 47.6348 144.266 47.8215 143.754 47.8215C143.474 47.8215 143.241 47.7748 143.101 47.7281C142.915 47.6348 142.775 47.4947 142.682 47.3547C142.589 47.2147 142.496 47.0279 142.449 46.7945ZM144.266 44.8339C144.266 44.6005 144.22 44.4138 144.126 44.2738C144.033 44.1337 143.893 44.087 143.754 44.087C143.614 44.087 143.521 44.1337 143.428 44.2738C143.334 44.3671 143.288 44.5538 143.288 44.7872C143.288 45.0673 143.334 45.2541 143.428 45.3474C143.521 45.4875 143.66 45.5341 143.8 45.5341C143.94 45.5341 144.033 45.4875 144.126 45.3474C144.22 45.2541 144.266 45.0673 144.266 44.8339Z" fill="white"/>
<path d="M148.646 44.3671L147.667 44.5072C147.621 44.3671 147.574 44.2271 147.528 44.1804C147.434 44.087 147.388 44.0404 147.295 44.0404C147.108 44.0404 147.015 44.1804 146.922 44.3671C146.829 44.5072 146.782 44.7872 146.782 45.2541C146.875 45.114 147.015 45.0206 147.155 44.9273C147.248 44.8806 147.388 44.8339 147.574 44.8339C147.9 44.8339 148.18 44.974 148.413 45.2541C148.599 45.5341 148.739 45.9076 148.739 46.3277C148.739 46.6078 148.646 46.8879 148.553 47.1213C148.459 47.3547 148.273 47.5414 148.087 47.6348C147.9 47.7748 147.621 47.8215 147.341 47.8215C146.968 47.8215 146.689 47.7748 146.456 47.5881C146.27 47.4481 146.083 47.2147 145.943 46.8879C145.804 46.5611 145.757 46.141 145.757 45.5808C145.757 44.7872 145.897 44.2271 146.176 43.8536C146.456 43.4802 146.829 43.2935 147.295 43.2935C147.574 43.2935 147.807 43.3401 147.993 43.4335C148.133 43.5269 148.273 43.6202 148.413 43.8069C148.506 43.947 148.599 44.1337 148.646 44.3671ZM146.782 46.3277C146.782 46.5611 146.829 46.7478 146.968 46.8879C147.062 47.0279 147.155 47.0746 147.295 47.0746C147.434 47.0746 147.574 47.0279 147.621 46.8879C147.714 46.7945 147.76 46.6078 147.76 46.3744C147.76 46.0943 147.714 45.9076 147.621 45.7675C147.528 45.6742 147.434 45.5808 147.295 45.5808C147.155 45.5808 147.015 45.6742 146.922 45.7675C146.829 45.9076 146.782 46.0943 146.782 46.3277Z" fill="white"/>
<path d="M156.38 45.4875H155.262V47.7749H154.283V44.6006H156.38V45.4875Z" fill="white"/>
<path d="M156.799 46.561H157.871V47.7747H156.799V46.561Z" fill="white"/>
<path d="M152.047 47.7748H149.019C149.065 47.4014 149.158 47.0746 149.345 46.7478C149.531 46.4211 149.857 46.0476 150.323 45.6275C150.603 45.3474 150.789 45.1607 150.882 45.0206C150.975 44.8806 151.022 44.7406 151.022 44.6472C151.022 44.5072 150.975 44.3671 150.882 44.2738C150.836 44.1804 150.696 44.1337 150.603 44.1337C150.463 44.1337 150.37 44.1804 150.276 44.2738C150.183 44.4138 150.137 44.5538 150.09 44.8339L149.112 44.6939C149.158 44.3671 149.205 44.087 149.345 43.9003C149.438 43.7136 149.578 43.5735 149.764 43.4802C149.95 43.3868 150.23 43.2935 150.556 43.2935C150.929 43.2935 151.208 43.3868 151.395 43.4802C151.581 43.5735 151.721 43.7136 151.861 43.9003C151.954 44.1337 152 44.3204 152 44.6005C152 44.8339 151.954 45.114 151.814 45.3474C151.674 45.5808 151.441 45.8609 151.115 46.141C150.929 46.3277 150.789 46.4211 150.696 46.5144C150.649 46.5611 150.556 46.6545 150.463 46.7945H152.047V47.7748Z" fill="white"/>
</svg>
